<mxfile host="Electron" modified="2024-05-03T23:12:35.113Z" agent="Mozilla/5.0 (Windows NT 10.0; Win64; x64) AppleWebKit/537.36 (KHTML, like Gecko) draw.io/24.2.5 Chrome/120.0.6099.109 Electron/28.1.0 Safari/537.36" etag="mWQmm6zu0eUAPpjjYufa" version="24.2.5" type="device">
  <diagram name="Страница — 1" id="e4pg9ZrYRIL_v4_HuiOs">
    <mxGraphModel dx="1674" dy="844" grid="1" gridSize="10" guides="1" tooltips="1" connect="1" arrows="1" fold="1" page="1" pageScale="1" pageWidth="827" pageHeight="1169" math="0" shadow="0">
      <root>
        <mxCell id="0" />
        <mxCell id="1" parent="0" />
        <mxCell id="Agj4pZDV_SmHxBct2r69-3" style="edgeStyle=orthogonalEdgeStyle;rounded=0;orthogonalLoop=1;jettySize=auto;html=1;exitX=0.5;exitY=1;exitDx=0;exitDy=0;entryX=0.5;entryY=0;entryDx=0;entryDy=0;" edge="1" parent="1" source="Agj4pZDV_SmHxBct2r69-1" target="Agj4pZDV_SmHxBct2r69-2">
          <mxGeometry relative="1" as="geometry" />
        </mxCell>
        <mxCell id="Agj4pZDV_SmHxBct2r69-1" value="начало&lt;div&gt;TakeNumber&lt;br&gt;&lt;/div&gt;" style="rounded=1;whiteSpace=wrap;html=1;arcSize=50;" vertex="1" parent="1">
          <mxGeometry x="20" y="10" width="100" height="50" as="geometry" />
        </mxCell>
        <mxCell id="Agj4pZDV_SmHxBct2r69-5" value="" style="edgeStyle=orthogonalEdgeStyle;rounded=0;orthogonalLoop=1;jettySize=auto;html=1;" edge="1" parent="1" source="Agj4pZDV_SmHxBct2r69-2" target="Agj4pZDV_SmHxBct2r69-4">
          <mxGeometry relative="1" as="geometry" />
        </mxCell>
        <mxCell id="Agj4pZDV_SmHxBct2r69-2" value="Ввод:&lt;br&gt;&lt;div&gt;a&lt;/div&gt;" style="shape=parallelogram;perimeter=parallelogramPerimeter;whiteSpace=wrap;html=1;fixedSize=1;" vertex="1" parent="1">
          <mxGeometry x="20" y="80" width="100" height="50" as="geometry" />
        </mxCell>
        <mxCell id="Agj4pZDV_SmHxBct2r69-7" style="edgeStyle=orthogonalEdgeStyle;rounded=0;orthogonalLoop=1;jettySize=auto;html=1;exitX=0.5;exitY=1;exitDx=0;exitDy=0;entryX=0.5;entryY=0;entryDx=0;entryDy=0;" edge="1" parent="1" source="Agj4pZDV_SmHxBct2r69-4" target="Agj4pZDV_SmHxBct2r69-6">
          <mxGeometry relative="1" as="geometry" />
        </mxCell>
        <mxCell id="Agj4pZDV_SmHxBct2r69-4" value="&amp;nbsp;result = a" style="rounded=0;whiteSpace=wrap;html=1;" vertex="1" parent="1">
          <mxGeometry x="20" y="150" width="100" height="50" as="geometry" />
        </mxCell>
        <mxCell id="Agj4pZDV_SmHxBct2r69-6" value="конец" style="rounded=1;whiteSpace=wrap;html=1;arcSize=50;" vertex="1" parent="1">
          <mxGeometry x="20" y="220" width="100" height="50" as="geometry" />
        </mxCell>
        <mxCell id="Agj4pZDV_SmHxBct2r69-10" value="" style="strokeWidth=2;html=1;shape=mxgraph.flowchart.annotation_1;align=left;pointerEvents=1;" vertex="1" parent="1">
          <mxGeometry x="140" y="150" width="20" height="50" as="geometry" />
        </mxCell>
        <mxCell id="Agj4pZDV_SmHxBct2r69-13" value="" style="endArrow=none;dashed=1;html=1;rounded=0;exitX=1;exitY=0.5;exitDx=0;exitDy=0;entryX=0;entryY=0.5;entryDx=0;entryDy=0;entryPerimeter=0;" edge="1" parent="1" source="Agj4pZDV_SmHxBct2r69-4" target="Agj4pZDV_SmHxBct2r69-10">
          <mxGeometry width="50" height="50" relative="1" as="geometry">
            <mxPoint x="170" y="300" as="sourcePoint" />
            <mxPoint x="220" y="250" as="targetPoint" />
          </mxGeometry>
        </mxCell>
        <mxCell id="Agj4pZDV_SmHxBct2r69-14" value="result - результат выполнения подпрограммы" style="text;html=1;align=center;verticalAlign=middle;whiteSpace=wrap;rounded=0;" vertex="1" parent="1">
          <mxGeometry x="140" y="160" width="120" height="30" as="geometry" />
        </mxCell>
        <mxCell id="Agj4pZDV_SmHxBct2r69-236" style="edgeStyle=orthogonalEdgeStyle;rounded=0;orthogonalLoop=1;jettySize=auto;html=1;exitX=0.5;exitY=1;exitDx=0;exitDy=0;entryX=0.5;entryY=0;entryDx=0;entryDy=0;" edge="1" parent="1" source="Agj4pZDV_SmHxBct2r69-15" target="Agj4pZDV_SmHxBct2r69-235">
          <mxGeometry relative="1" as="geometry" />
        </mxCell>
        <mxCell id="Agj4pZDV_SmHxBct2r69-15" value="начало&lt;div&gt;full&lt;span style=&quot;text-align: start; background-color: initial; text-wrap: nowrap; font-size: 0px;&quot;&gt;&lt;font face=&quot;monospace&quot; color=&quot;rgba(0, 0, 0, 0)&quot;&gt;full&lt;/font&gt;&lt;/span&gt;&lt;span style=&quot;text-align: start; background-color: initial; text-wrap: nowrap; color: rgba(0, 0, 0, 0); font-family: monospace; font-size: 0px;&quot;&gt;%3CmxGraphModel%3E%3Croot%3E%3CmxCell%20id%3D%220%22%2F%3E%3CmxCell%20id%3D%221%22%20parent%3D%220%22%2F%3E%3CmxCell%20id%3D%222%22%20value%3D%22%D0%BD%D0%B0%D1%87%D0%B0%D0%BB%D0%BE%22%20style%3D%22rounded%3D1%3BwhiteSpace%3Dwrap%3Bhtml%3D1%3BarcSize%3D50%3B%22%20vertex%3D%221%22%20parent%3D%221%22%3E%3CmxGeometry%20x%3D%22260%22%20y%3D%2210%22%20width%3D%22100%22%20height%3D%2250%22%20as%3D%22geometry%22%2F%3E%3C%2FmxCell%3E%3C%2Froot%3E%3C%2FmxGraphModel%3E&lt;/span&gt;&lt;span style=&quot;text-align: start; background-color: initial; text-wrap: nowrap; color: rgba(0, 0, 0, 0); font-family: monospace; font-size: 0px;&quot;&gt;%3CmxGraphModel%3E%3Croot%3E%3CmxCell%20id%3D%220%22%2F%3E%3CmxCell%20id%3D%221%22%20parent%3D%220%22%2F%3E%3CmxCell%20id%3D%222%22%20value%3D%22%D0%BD%D0%B0%D1%87%D0%B0%D0%BB%D0%BE%22%20style%3D%22rounded%3D1%3BwhiteSpace%3Dwrap%3Bhtml%3D1%3BarcSize%3D50%3B%22%20vertex%3D%221%22%20parent%3D%221%22%3E%3CmxGeometry%20x%3D%22260%22%20y%3D%2210%22%20width%3D%22100%22%20height%3D%2250%22%20as%3D%22geometry%22%2F%3E%3C%2FmxCell%3E%3C%2Froot%3E%3C%2FmxGraphModel%3E&lt;/span&gt;&lt;/div&gt;" style="rounded=1;whiteSpace=wrap;html=1;arcSize=50;" vertex="1" parent="1">
          <mxGeometry x="260" y="10" width="100" height="50" as="geometry" />
        </mxCell>
        <mxCell id="Agj4pZDV_SmHxBct2r69-61" style="edgeStyle=orthogonalEdgeStyle;rounded=0;orthogonalLoop=1;jettySize=auto;html=1;exitX=0.5;exitY=1;exitDx=0;exitDy=0;exitPerimeter=0;entryX=0.5;entryY=0;entryDx=0;entryDy=0;" edge="1" parent="1" source="Agj4pZDV_SmHxBct2r69-16" target="Agj4pZDV_SmHxBct2r69-60">
          <mxGeometry relative="1" as="geometry" />
        </mxCell>
        <mxCell id="Agj4pZDV_SmHxBct2r69-16" value="цикл 1&lt;div&gt;i = n-1&lt;/div&gt;" style="strokeWidth=2;html=1;shape=mxgraph.flowchart.loop_limit;whiteSpace=wrap;" vertex="1" parent="1">
          <mxGeometry x="260" y="150" width="100" height="50" as="geometry" />
        </mxCell>
        <mxCell id="Agj4pZDV_SmHxBct2r69-60" value="A[i] = maxint&lt;div&gt;i = i + 1&lt;/div&gt;" style="rounded=0;whiteSpace=wrap;html=1;" vertex="1" parent="1">
          <mxGeometry x="260" y="220" width="100" height="50" as="geometry" />
        </mxCell>
        <mxCell id="Agj4pZDV_SmHxBct2r69-233" style="edgeStyle=orthogonalEdgeStyle;rounded=0;orthogonalLoop=1;jettySize=auto;html=1;exitX=0.5;exitY=0;exitDx=0;exitDy=0;exitPerimeter=0;entryX=0.5;entryY=0;entryDx=0;entryDy=0;" edge="1" parent="1" source="Agj4pZDV_SmHxBct2r69-62" target="Agj4pZDV_SmHxBct2r69-232">
          <mxGeometry relative="1" as="geometry" />
        </mxCell>
        <mxCell id="Agj4pZDV_SmHxBct2r69-62" value="" style="strokeWidth=2;html=1;shape=mxgraph.flowchart.loop_limit;whiteSpace=wrap;rotation=-180;" vertex="1" parent="1">
          <mxGeometry x="260" y="290" width="100" height="50" as="geometry" />
        </mxCell>
        <mxCell id="Agj4pZDV_SmHxBct2r69-63" value="цикл 1" style="text;html=1;strokeColor=none;fillColor=none;align=center;verticalAlign=middle;whiteSpace=wrap;rounded=0;" vertex="1" parent="1">
          <mxGeometry x="280" y="300" width="60" height="30" as="geometry" />
        </mxCell>
        <mxCell id="Agj4pZDV_SmHxBct2r69-65" style="edgeStyle=orthogonalEdgeStyle;rounded=0;orthogonalLoop=1;jettySize=auto;html=1;exitX=0.5;exitY=1;exitDx=0;exitDy=0;entryX=0.5;entryY=1;entryDx=0;entryDy=0;entryPerimeter=0;" edge="1" parent="1" source="Agj4pZDV_SmHxBct2r69-60" target="Agj4pZDV_SmHxBct2r69-62">
          <mxGeometry relative="1" as="geometry" />
        </mxCell>
        <mxCell id="Agj4pZDV_SmHxBct2r69-162" value="" style="strokeWidth=2;html=1;shape=mxgraph.flowchart.annotation_1;align=left;pointerEvents=1;" vertex="1" parent="1">
          <mxGeometry x="380" y="220" width="20" height="50" as="geometry" />
        </mxCell>
        <mxCell id="Agj4pZDV_SmHxBct2r69-163" value="" style="endArrow=none;dashed=1;html=1;rounded=0;exitX=1;exitY=0.5;exitDx=0;exitDy=0;entryX=0;entryY=0.5;entryDx=0;entryDy=0;entryPerimeter=0;" edge="1" parent="1" target="Agj4pZDV_SmHxBct2r69-162" source="Agj4pZDV_SmHxBct2r69-60">
          <mxGeometry width="50" height="50" relative="1" as="geometry">
            <mxPoint x="470" y="225" as="sourcePoint" />
            <mxPoint x="570" y="300" as="targetPoint" />
          </mxGeometry>
        </mxCell>
        <mxCell id="Agj4pZDV_SmHxBct2r69-164" value="maxint - мкасимальное значение integer" style="text;html=1;align=center;verticalAlign=middle;whiteSpace=wrap;rounded=0;" vertex="1" parent="1">
          <mxGeometry x="384" y="230" width="136" height="30" as="geometry" />
        </mxCell>
        <mxCell id="Agj4pZDV_SmHxBct2r69-166" value="" style="strokeWidth=2;html=1;shape=mxgraph.flowchart.annotation_1;align=left;pointerEvents=1;" vertex="1" parent="1">
          <mxGeometry x="380" y="150" width="20" height="50" as="geometry" />
        </mxCell>
        <mxCell id="Agj4pZDV_SmHxBct2r69-167" value="" style="endArrow=none;dashed=1;html=1;rounded=0;exitX=1;exitY=0.5;exitDx=0;exitDy=0;entryX=0;entryY=0.5;entryDx=0;entryDy=0;entryPerimeter=0;exitPerimeter=0;" edge="1" parent="1" target="Agj4pZDV_SmHxBct2r69-166" source="Agj4pZDV_SmHxBct2r69-16">
          <mxGeometry width="50" height="50" relative="1" as="geometry">
            <mxPoint x="410" y="175" as="sourcePoint" />
            <mxPoint x="510" y="250" as="targetPoint" />
          </mxGeometry>
        </mxCell>
        <mxCell id="Agj4pZDV_SmHxBct2r69-168" value="n = 10, это константа" style="text;html=1;align=center;verticalAlign=middle;whiteSpace=wrap;rounded=0;" vertex="1" parent="1">
          <mxGeometry x="384" y="160" width="76" height="30" as="geometry" />
        </mxCell>
        <mxCell id="Agj4pZDV_SmHxBct2r69-185" style="edgeStyle=orthogonalEdgeStyle;rounded=0;orthogonalLoop=1;jettySize=auto;html=1;exitX=0.5;exitY=1;exitDx=0;exitDy=0;entryX=0.5;entryY=0;entryDx=0;entryDy=0;" edge="1" parent="1" source="Agj4pZDV_SmHxBct2r69-169" target="Agj4pZDV_SmHxBct2r69-184">
          <mxGeometry relative="1" as="geometry" />
        </mxCell>
        <mxCell id="Agj4pZDV_SmHxBct2r69-169" value="начало&lt;div&gt;WriteAD&lt;br&gt;&lt;/div&gt;" style="rounded=1;whiteSpace=wrap;html=1;arcSize=50;" vertex="1" parent="1">
          <mxGeometry x="18" y="370" width="100" height="50" as="geometry" />
        </mxCell>
        <mxCell id="Agj4pZDV_SmHxBct2r69-170" style="edgeStyle=orthogonalEdgeStyle;rounded=0;orthogonalLoop=1;jettySize=auto;html=1;exitX=0.5;exitY=1;exitDx=0;exitDy=0;exitPerimeter=0;entryX=0.5;entryY=0;entryDx=0;entryDy=0;" edge="1" parent="1" source="Agj4pZDV_SmHxBct2r69-171" target="Agj4pZDV_SmHxBct2r69-187">
          <mxGeometry relative="1" as="geometry">
            <mxPoint x="68" y="580" as="targetPoint" />
          </mxGeometry>
        </mxCell>
        <mxCell id="Agj4pZDV_SmHxBct2r69-171" value="цикл 1&lt;div&gt;i = n-1&lt;/div&gt;" style="strokeWidth=2;html=1;shape=mxgraph.flowchart.loop_limit;whiteSpace=wrap;" vertex="1" parent="1">
          <mxGeometry x="18" y="510" width="100" height="50" as="geometry" />
        </mxCell>
        <mxCell id="Agj4pZDV_SmHxBct2r69-223" style="edgeStyle=orthogonalEdgeStyle;rounded=0;orthogonalLoop=1;jettySize=auto;html=1;exitX=0.5;exitY=0;exitDx=0;exitDy=0;exitPerimeter=0;entryX=0.5;entryY=0;entryDx=0;entryDy=0;" edge="1" parent="1" source="Agj4pZDV_SmHxBct2r69-173" target="Agj4pZDV_SmHxBct2r69-222">
          <mxGeometry relative="1" as="geometry" />
        </mxCell>
        <mxCell id="Agj4pZDV_SmHxBct2r69-173" value="" style="strokeWidth=2;html=1;shape=mxgraph.flowchart.loop_limit;whiteSpace=wrap;rotation=-180;" vertex="1" parent="1">
          <mxGeometry x="18" y="820" width="100" height="50" as="geometry" />
        </mxCell>
        <mxCell id="Agj4pZDV_SmHxBct2r69-174" value="цикл 1" style="text;html=1;strokeColor=none;fillColor=none;align=center;verticalAlign=middle;whiteSpace=wrap;rounded=0;" vertex="1" parent="1">
          <mxGeometry x="38" y="830" width="60" height="30" as="geometry" />
        </mxCell>
        <mxCell id="Agj4pZDV_SmHxBct2r69-176" value="" style="strokeWidth=2;html=1;shape=mxgraph.flowchart.annotation_1;align=left;pointerEvents=1;" vertex="1" parent="1">
          <mxGeometry x="208" y="585" width="20" height="50" as="geometry" />
        </mxCell>
        <mxCell id="Agj4pZDV_SmHxBct2r69-177" value="" style="endArrow=none;dashed=1;html=1;rounded=0;exitX=1;exitY=0.5;exitDx=0;exitDy=0;entryX=0;entryY=0.5;entryDx=0;entryDy=0;entryPerimeter=0;" edge="1" parent="1" target="Agj4pZDV_SmHxBct2r69-176">
          <mxGeometry width="50" height="50" relative="1" as="geometry">
            <mxPoint x="188" y="610" as="sourcePoint" />
            <mxPoint x="398" y="665" as="targetPoint" />
          </mxGeometry>
        </mxCell>
        <mxCell id="Agj4pZDV_SmHxBct2r69-178" value="maxint - мкасимальное значение integer" style="text;html=1;align=center;verticalAlign=middle;whiteSpace=wrap;rounded=0;" vertex="1" parent="1">
          <mxGeometry x="212" y="595" width="136" height="30" as="geometry" />
        </mxCell>
        <mxCell id="Agj4pZDV_SmHxBct2r69-179" value="" style="strokeWidth=2;html=1;shape=mxgraph.flowchart.annotation_1;align=left;pointerEvents=1;" vertex="1" parent="1">
          <mxGeometry x="138" y="510" width="20" height="50" as="geometry" />
        </mxCell>
        <mxCell id="Agj4pZDV_SmHxBct2r69-180" value="" style="endArrow=none;dashed=1;html=1;rounded=0;exitX=1;exitY=0.5;exitDx=0;exitDy=0;entryX=0;entryY=0.5;entryDx=0;entryDy=0;entryPerimeter=0;exitPerimeter=0;" edge="1" parent="1" source="Agj4pZDV_SmHxBct2r69-171" target="Agj4pZDV_SmHxBct2r69-179">
          <mxGeometry width="50" height="50" relative="1" as="geometry">
            <mxPoint x="168" y="535" as="sourcePoint" />
            <mxPoint x="268" y="610" as="targetPoint" />
          </mxGeometry>
        </mxCell>
        <mxCell id="Agj4pZDV_SmHxBct2r69-181" value="n = 10, это константа" style="text;html=1;align=center;verticalAlign=middle;whiteSpace=wrap;rounded=0;" vertex="1" parent="1">
          <mxGeometry x="142" y="520" width="76" height="30" as="geometry" />
        </mxCell>
        <mxCell id="Agj4pZDV_SmHxBct2r69-184" value="k = 0&lt;div&gt;i = 0&lt;/div&gt;" style="rounded=0;whiteSpace=wrap;html=1;" vertex="1" parent="1">
          <mxGeometry x="18" y="440" width="100" height="50" as="geometry" />
        </mxCell>
        <mxCell id="Agj4pZDV_SmHxBct2r69-186" style="edgeStyle=orthogonalEdgeStyle;rounded=0;orthogonalLoop=1;jettySize=auto;html=1;exitX=0.5;exitY=1;exitDx=0;exitDy=0;entryX=0.5;entryY=0;entryDx=0;entryDy=0;entryPerimeter=0;" edge="1" parent="1" source="Agj4pZDV_SmHxBct2r69-184" target="Agj4pZDV_SmHxBct2r69-171">
          <mxGeometry relative="1" as="geometry" />
        </mxCell>
        <mxCell id="Agj4pZDV_SmHxBct2r69-193" style="edgeStyle=orthogonalEdgeStyle;rounded=0;orthogonalLoop=1;jettySize=auto;html=1;exitX=1;exitY=0.5;exitDx=0;exitDy=0;entryX=0.5;entryY=0;entryDx=0;entryDy=0;" edge="1" parent="1" source="Agj4pZDV_SmHxBct2r69-187" target="Agj4pZDV_SmHxBct2r69-192">
          <mxGeometry relative="1" as="geometry" />
        </mxCell>
        <mxCell id="Agj4pZDV_SmHxBct2r69-205" style="edgeStyle=orthogonalEdgeStyle;rounded=0;orthogonalLoop=1;jettySize=auto;html=1;exitX=0.5;exitY=1;exitDx=0;exitDy=0;" edge="1" parent="1" source="Agj4pZDV_SmHxBct2r69-187" target="Agj4pZDV_SmHxBct2r69-203">
          <mxGeometry relative="1" as="geometry" />
        </mxCell>
        <mxCell id="Agj4pZDV_SmHxBct2r69-187" value="MaxInt&amp;nbsp;&lt;span style=&quot;font-family: arial, verdana; font-size: 13px; text-align: start; background-color: rgb(255, 255, 255);&quot;&gt;≠&amp;nbsp;&lt;/span&gt;A[i]" style="rhombus;whiteSpace=wrap;html=1;" vertex="1" parent="1">
          <mxGeometry x="18" y="580" width="100" height="60" as="geometry" />
        </mxCell>
        <mxCell id="Agj4pZDV_SmHxBct2r69-188" value="да" style="text;html=1;strokeColor=none;fillColor=none;align=center;verticalAlign=middle;whiteSpace=wrap;rounded=0;" vertex="1" parent="1">
          <mxGeometry x="94.5" y="580" width="60" height="30" as="geometry" />
        </mxCell>
        <mxCell id="Agj4pZDV_SmHxBct2r69-189" value="нет" style="text;html=1;strokeColor=none;fillColor=none;align=center;verticalAlign=middle;whiteSpace=wrap;rounded=0;" vertex="1" parent="1">
          <mxGeometry x="58" y="630" width="60" height="30" as="geometry" />
        </mxCell>
        <mxCell id="Agj4pZDV_SmHxBct2r69-195" style="edgeStyle=orthogonalEdgeStyle;rounded=0;orthogonalLoop=1;jettySize=auto;html=1;exitX=0.5;exitY=1;exitDx=0;exitDy=0;" edge="1" parent="1" source="Agj4pZDV_SmHxBct2r69-192">
          <mxGeometry relative="1" as="geometry">
            <mxPoint x="68" y="730" as="targetPoint" />
            <Array as="points">
              <mxPoint x="188" y="730" />
            </Array>
          </mxGeometry>
        </mxCell>
        <mxCell id="Agj4pZDV_SmHxBct2r69-192" value="k=k+1" style="rounded=0;whiteSpace=wrap;html=1;" vertex="1" parent="1">
          <mxGeometry x="138" y="660" width="100" height="50" as="geometry" />
        </mxCell>
        <mxCell id="Agj4pZDV_SmHxBct2r69-206" style="edgeStyle=orthogonalEdgeStyle;rounded=0;orthogonalLoop=1;jettySize=auto;html=1;exitX=0.5;exitY=1;exitDx=0;exitDy=0;exitPerimeter=0;entryX=0.5;entryY=0;entryDx=0;entryDy=0;" edge="1" parent="1" source="Agj4pZDV_SmHxBct2r69-198" target="Agj4pZDV_SmHxBct2r69-200">
          <mxGeometry relative="1" as="geometry" />
        </mxCell>
        <mxCell id="Agj4pZDV_SmHxBct2r69-198" value="цикл 2&lt;div&gt;i = n-1&lt;/div&gt;" style="strokeWidth=2;html=1;shape=mxgraph.flowchart.loop_limit;whiteSpace=wrap;" vertex="1" parent="1">
          <mxGeometry x="430" y="400" width="100" height="50" as="geometry" />
        </mxCell>
        <mxCell id="Agj4pZDV_SmHxBct2r69-209" style="edgeStyle=orthogonalEdgeStyle;rounded=0;orthogonalLoop=1;jettySize=auto;html=1;exitX=1;exitY=0.5;exitDx=0;exitDy=0;entryX=0.5;entryY=0;entryDx=0;entryDy=0;" edge="1" parent="1" source="Agj4pZDV_SmHxBct2r69-200" target="Agj4pZDV_SmHxBct2r69-207">
          <mxGeometry relative="1" as="geometry" />
        </mxCell>
        <mxCell id="Agj4pZDV_SmHxBct2r69-211" style="edgeStyle=orthogonalEdgeStyle;rounded=0;orthogonalLoop=1;jettySize=auto;html=1;exitX=0.5;exitY=1;exitDx=0;exitDy=0;entryX=0.5;entryY=0;entryDx=0;entryDy=0;" edge="1" parent="1" source="Agj4pZDV_SmHxBct2r69-200" target="Agj4pZDV_SmHxBct2r69-210">
          <mxGeometry relative="1" as="geometry" />
        </mxCell>
        <mxCell id="Agj4pZDV_SmHxBct2r69-200" value="A[i]=MaxInt" style="rhombus;whiteSpace=wrap;html=1;" vertex="1" parent="1">
          <mxGeometry x="430" y="470" width="100" height="60" as="geometry" />
        </mxCell>
        <mxCell id="Agj4pZDV_SmHxBct2r69-201" value="да" style="text;html=1;strokeColor=none;fillColor=none;align=center;verticalAlign=middle;whiteSpace=wrap;rounded=0;" vertex="1" parent="1">
          <mxGeometry x="506.5" y="470" width="60" height="30" as="geometry" />
        </mxCell>
        <mxCell id="Agj4pZDV_SmHxBct2r69-202" value="нет" style="text;html=1;strokeColor=none;fillColor=none;align=center;verticalAlign=middle;whiteSpace=wrap;rounded=0;" vertex="1" parent="1">
          <mxGeometry x="470" y="520" width="60" height="30" as="geometry" />
        </mxCell>
        <mxCell id="Agj4pZDV_SmHxBct2r69-203" value="i = i + 1" style="rounded=0;whiteSpace=wrap;html=1;" vertex="1" parent="1">
          <mxGeometry x="18" y="750" width="100" height="50" as="geometry" />
        </mxCell>
        <mxCell id="Agj4pZDV_SmHxBct2r69-204" style="edgeStyle=orthogonalEdgeStyle;rounded=0;orthogonalLoop=1;jettySize=auto;html=1;exitX=0.5;exitY=1;exitDx=0;exitDy=0;entryX=0.5;entryY=1;entryDx=0;entryDy=0;entryPerimeter=0;" edge="1" parent="1" source="Agj4pZDV_SmHxBct2r69-203" target="Agj4pZDV_SmHxBct2r69-173">
          <mxGeometry relative="1" as="geometry" />
        </mxCell>
        <mxCell id="Agj4pZDV_SmHxBct2r69-216" style="edgeStyle=orthogonalEdgeStyle;rounded=0;orthogonalLoop=1;jettySize=auto;html=1;exitX=0.5;exitY=1;exitDx=0;exitDy=0;" edge="1" parent="1" source="Agj4pZDV_SmHxBct2r69-207">
          <mxGeometry relative="1" as="geometry">
            <mxPoint x="480" y="620" as="targetPoint" />
            <Array as="points">
              <mxPoint x="600" y="620" />
              <mxPoint x="481" y="620" />
            </Array>
          </mxGeometry>
        </mxCell>
        <mxCell id="Agj4pZDV_SmHxBct2r69-207" value="Вывод:&lt;br&gt;&lt;div&gt;|&amp;nbsp; x |&lt;br&gt;&lt;/div&gt;" style="shape=parallelogram;perimeter=parallelogramPerimeter;whiteSpace=wrap;html=1;fixedSize=1;" vertex="1" parent="1">
          <mxGeometry x="550" y="550" width="100" height="50" as="geometry" />
        </mxCell>
        <mxCell id="Agj4pZDV_SmHxBct2r69-215" style="edgeStyle=orthogonalEdgeStyle;rounded=0;orthogonalLoop=1;jettySize=auto;html=1;exitX=0.5;exitY=1;exitDx=0;exitDy=0;entryX=0.5;entryY=0;entryDx=0;entryDy=0;" edge="1" parent="1" source="Agj4pZDV_SmHxBct2r69-210" target="Agj4pZDV_SmHxBct2r69-212">
          <mxGeometry relative="1" as="geometry" />
        </mxCell>
        <mxCell id="Agj4pZDV_SmHxBct2r69-210" value="Вывод:&lt;br&gt;&lt;div&gt;|,A[i]:4,|&lt;br&gt;&lt;/div&gt;" style="shape=parallelogram;perimeter=parallelogramPerimeter;whiteSpace=wrap;html=1;fixedSize=1;" vertex="1" parent="1">
          <mxGeometry x="430" y="550" width="100" height="50" as="geometry" />
        </mxCell>
        <mxCell id="Agj4pZDV_SmHxBct2r69-218" style="edgeStyle=orthogonalEdgeStyle;rounded=0;orthogonalLoop=1;jettySize=auto;html=1;exitX=1;exitY=0.5;exitDx=0;exitDy=0;entryX=0.5;entryY=0;entryDx=0;entryDy=0;" edge="1" parent="1" source="Agj4pZDV_SmHxBct2r69-212" target="Agj4pZDV_SmHxBct2r69-217">
          <mxGeometry relative="1" as="geometry" />
        </mxCell>
        <mxCell id="Agj4pZDV_SmHxBct2r69-220" style="edgeStyle=orthogonalEdgeStyle;rounded=0;orthogonalLoop=1;jettySize=auto;html=1;exitX=0.5;exitY=1;exitDx=0;exitDy=0;entryX=0.5;entryY=0;entryDx=0;entryDy=0;" edge="1" parent="1" source="Agj4pZDV_SmHxBct2r69-212" target="Agj4pZDV_SmHxBct2r69-219">
          <mxGeometry relative="1" as="geometry" />
        </mxCell>
        <mxCell id="Agj4pZDV_SmHxBct2r69-212" value="i&amp;lt;&amp;gt;n-1" style="rhombus;whiteSpace=wrap;html=1;" vertex="1" parent="1">
          <mxGeometry x="430" y="640" width="100" height="60" as="geometry" />
        </mxCell>
        <mxCell id="Agj4pZDV_SmHxBct2r69-213" value="да" style="text;html=1;strokeColor=none;fillColor=none;align=center;verticalAlign=middle;whiteSpace=wrap;rounded=0;" vertex="1" parent="1">
          <mxGeometry x="506.5" y="640" width="60" height="30" as="geometry" />
        </mxCell>
        <mxCell id="Agj4pZDV_SmHxBct2r69-214" value="нет" style="text;html=1;strokeColor=none;fillColor=none;align=center;verticalAlign=middle;whiteSpace=wrap;rounded=0;" vertex="1" parent="1">
          <mxGeometry x="473.5" y="690" width="60" height="30" as="geometry" />
        </mxCell>
        <mxCell id="Agj4pZDV_SmHxBct2r69-221" style="edgeStyle=orthogonalEdgeStyle;rounded=0;orthogonalLoop=1;jettySize=auto;html=1;exitX=0.5;exitY=1;exitDx=0;exitDy=0;" edge="1" parent="1" source="Agj4pZDV_SmHxBct2r69-217">
          <mxGeometry relative="1" as="geometry">
            <mxPoint x="480" y="780" as="targetPoint" />
            <Array as="points">
              <mxPoint x="590" y="780" />
            </Array>
          </mxGeometry>
        </mxCell>
        <mxCell id="Agj4pZDV_SmHxBct2r69-217" value="Вывод:&lt;br&gt;&lt;div&gt;&amp;nbsp;=&amp;nbsp;&lt;br&gt;&lt;/div&gt;" style="shape=parallelogram;perimeter=parallelogramPerimeter;whiteSpace=wrap;html=1;fixedSize=1;" vertex="1" parent="1">
          <mxGeometry x="540" y="710" width="100" height="50" as="geometry" />
        </mxCell>
        <mxCell id="Agj4pZDV_SmHxBct2r69-219" value="i = i + 1" style="rounded=0;whiteSpace=wrap;html=1;" vertex="1" parent="1">
          <mxGeometry x="430" y="800" width="100" height="50" as="geometry" />
        </mxCell>
        <mxCell id="Agj4pZDV_SmHxBct2r69-240" style="edgeStyle=orthogonalEdgeStyle;rounded=0;orthogonalLoop=1;jettySize=auto;html=1;exitX=0.5;exitY=1;exitDx=0;exitDy=0;entryX=0.5;entryY=0;entryDx=0;entryDy=0;" edge="1" parent="1" source="Agj4pZDV_SmHxBct2r69-222" target="Agj4pZDV_SmHxBct2r69-238">
          <mxGeometry relative="1" as="geometry">
            <Array as="points">
              <mxPoint x="68" y="960" />
              <mxPoint x="410" y="960" />
              <mxPoint x="410" y="310" />
              <mxPoint x="480" y="310" />
            </Array>
          </mxGeometry>
        </mxCell>
        <mxCell id="Agj4pZDV_SmHxBct2r69-222" value="Вывод:&lt;br&gt;&lt;div&gt;нижних подчёркиваний&lt;/div&gt;" style="shape=parallelogram;perimeter=parallelogramPerimeter;whiteSpace=wrap;html=1;fixedSize=1;" vertex="1" parent="1">
          <mxGeometry x="18" y="890" width="100" height="50" as="geometry" />
        </mxCell>
        <mxCell id="Agj4pZDV_SmHxBct2r69-229" style="edgeStyle=orthogonalEdgeStyle;rounded=0;orthogonalLoop=1;jettySize=auto;html=1;exitX=0.5;exitY=0;exitDx=0;exitDy=0;exitPerimeter=0;entryX=0.5;entryY=0;entryDx=0;entryDy=0;" edge="1" parent="1" source="Agj4pZDV_SmHxBct2r69-225" target="Agj4pZDV_SmHxBct2r69-228">
          <mxGeometry relative="1" as="geometry" />
        </mxCell>
        <mxCell id="Agj4pZDV_SmHxBct2r69-225" value="" style="strokeWidth=2;html=1;shape=mxgraph.flowchart.loop_limit;whiteSpace=wrap;rotation=-180;" vertex="1" parent="1">
          <mxGeometry x="430" y="870" width="100" height="50" as="geometry" />
        </mxCell>
        <mxCell id="Agj4pZDV_SmHxBct2r69-226" value="цикл 2" style="text;html=1;strokeColor=none;fillColor=none;align=center;verticalAlign=middle;whiteSpace=wrap;rounded=0;" vertex="1" parent="1">
          <mxGeometry x="450" y="880" width="60" height="30" as="geometry" />
        </mxCell>
        <mxCell id="Agj4pZDV_SmHxBct2r69-227" style="edgeStyle=orthogonalEdgeStyle;rounded=0;orthogonalLoop=1;jettySize=auto;html=1;exitX=0.5;exitY=1;exitDx=0;exitDy=0;entryX=0.5;entryY=1;entryDx=0;entryDy=0;entryPerimeter=0;" edge="1" parent="1" source="Agj4pZDV_SmHxBct2r69-219" target="Agj4pZDV_SmHxBct2r69-225">
          <mxGeometry relative="1" as="geometry" />
        </mxCell>
        <mxCell id="Agj4pZDV_SmHxBct2r69-231" style="edgeStyle=orthogonalEdgeStyle;rounded=0;orthogonalLoop=1;jettySize=auto;html=1;exitX=0.5;exitY=1;exitDx=0;exitDy=0;entryX=0.5;entryY=0;entryDx=0;entryDy=0;" edge="1" parent="1" source="Agj4pZDV_SmHxBct2r69-228" target="Agj4pZDV_SmHxBct2r69-230">
          <mxGeometry relative="1" as="geometry" />
        </mxCell>
        <mxCell id="Agj4pZDV_SmHxBct2r69-228" value="Вывод:&lt;br&gt;&lt;div&gt;верхних надчёркиваний&lt;/div&gt;" style="shape=parallelogram;perimeter=parallelogramPerimeter;whiteSpace=wrap;html=1;fixedSize=1;" vertex="1" parent="1">
          <mxGeometry x="430" y="940" width="100" height="50" as="geometry" />
        </mxCell>
        <mxCell id="Agj4pZDV_SmHxBct2r69-230" value="конец" style="rounded=1;whiteSpace=wrap;html=1;arcSize=50;" vertex="1" parent="1">
          <mxGeometry x="430" y="1010" width="100" height="50" as="geometry" />
        </mxCell>
        <mxCell id="Agj4pZDV_SmHxBct2r69-232" value="конец" style="rounded=1;whiteSpace=wrap;html=1;arcSize=50;" vertex="1" parent="1">
          <mxGeometry x="260" y="360" width="100" height="50" as="geometry" />
        </mxCell>
        <mxCell id="Agj4pZDV_SmHxBct2r69-235" value="i = 0" style="rounded=0;whiteSpace=wrap;html=1;" vertex="1" parent="1">
          <mxGeometry x="260" y="80" width="100" height="50" as="geometry" />
        </mxCell>
        <mxCell id="Agj4pZDV_SmHxBct2r69-237" style="edgeStyle=orthogonalEdgeStyle;rounded=0;orthogonalLoop=1;jettySize=auto;html=1;exitX=0.5;exitY=1;exitDx=0;exitDy=0;entryX=0.5;entryY=0;entryDx=0;entryDy=0;entryPerimeter=0;" edge="1" parent="1" source="Agj4pZDV_SmHxBct2r69-235" target="Agj4pZDV_SmHxBct2r69-16">
          <mxGeometry relative="1" as="geometry" />
        </mxCell>
        <mxCell id="Agj4pZDV_SmHxBct2r69-238" value="i = 0" style="rounded=0;whiteSpace=wrap;html=1;" vertex="1" parent="1">
          <mxGeometry x="430" y="330" width="100" height="50" as="geometry" />
        </mxCell>
        <mxCell id="Agj4pZDV_SmHxBct2r69-239" style="edgeStyle=orthogonalEdgeStyle;rounded=0;orthogonalLoop=1;jettySize=auto;html=1;exitX=0.5;exitY=1;exitDx=0;exitDy=0;entryX=0.5;entryY=0;entryDx=0;entryDy=0;entryPerimeter=0;" edge="1" parent="1" source="Agj4pZDV_SmHxBct2r69-238" target="Agj4pZDV_SmHxBct2r69-198">
          <mxGeometry relative="1" as="geometry" />
        </mxCell>
      </root>
    </mxGraphModel>
  </diagram>
</mxfile>
